<svg xmlns="http://www.w3.org/2000/svg" viewBox="0 0 24 24" width="24" height="24" fill="#FFFFFF">
  <path d="M20.317 4.369A19.79 19.79 0 0 0 16.558 3.2a.07.07 0 0 0-.073.035c-.2.354-.404.798-.546 1.16a18.27 18.27 0 0 0-5.487 0 12.64 12.64 0 0 0-.555-1.16.07.07 0 0 0-.073-.035 19.74 19.74 0 0 0-3.76 1.169.066.066 0 0 0-.03.026C2.073 8.045 1.397 11.6 1.73 15.114a.082.082 0 0 0 .031.056 19.9 19.9 0 0 0 5.993 3.03.07.07 0 0 0 .076-.027c.46-.63.871-1.295 1.226-1.994a.07.07 0 0 0-.038-.098 13.1 13.1 0 0 1-1.872-.892.07.07 0 0 1-.007-.117c.126-.094.252-.192.372-.291a.07.07 0 0 1 .073-.01c3.927 1.793 8.18 1.793 12.062 0a.07.07 0 0 1 .074.009c.12.099.246.198.373.292a.07.07 0 0 1-.006.117 12.3 12.3 0 0 1-1.873.891.07.07 0 0 0-.038.099c.36.699.772 1.364 1.226 1.994a.07.07 0 0 0 .076.028 19.84 19.84 0 0 0 6.002-3.03.07.07 0 0 0 .031-.055c.4-4.063-.668-7.59-2.83-10.72a.06.06 0 0 0-.029-.025zM8.02 12.99c-1.182 0-2.157-1.085-2.157-2.419 0-1.333.956-2.418 2.157-2.418 1.21 0 2.176 1.094 2.157 2.418 0 1.334-.956 2.42-2.157 2.42zm7.974 0c-1.183 0-2.157-1.085-2.157-2.419 0-1.333.955-2.418 2.157-2.418 1.21 0 2.176 1.094 2.157 2.418 0 1.334-.946 2.42-2.157 2.42z"></path>
</svg>